# xmcd
# 
# Track frame offsets:
#     150
#     24427
#     49806
#     65746
#     86796
#     105043
#     114185
#     132063
#     159332
#     176458
#     188878
#     207738
#     218585
#     239228
# 
# Disc length: 3364
# 
# Revision: 1
# Processed by: cddbd v1.5.2PL0 Copyright (c) Steve Scherf et al.
# Submitted via: fre:ac v1.0.31
# 
DISCID=be0d220e
DTITLE=Air - twentyears [CD2]
DYEAR=0
DGENRE=
TTITLE0=Planet Vega
TTITLE1=Flowerhead
TTITLE2=Crickets
TTITLE3=The Duelist
TTITLE4=High Point
TTITLE5=Au Fond Du Rêve Doré
TTITLE6=Danger Zone
TTITLE7=Indian Summer
TTITLE8=The Way You Look Tonight
TTITLE9=Roger Song
TTITLE10=J'ai Dormi Sous L'eau [BBC Session 1998]
TTITLE11=Remember [David Whitaker Version]
TTITLE12=Trente Millions D'amis [Live KCRW 1998]
TTITLE13=Adis Abebah
EXTD=
EXTT0=
EXTT1=
EXTT2=
EXTT3=
EXTT4=
EXTT5=
EXTT6=
EXTT7=
EXTT8=
EXTT9=
EXTT10=
EXTT11=
EXTT12=
EXTT13=
PLAYORDER=
